<?xml version="1.0" encoding="utf-8"?><svg viewBox="0 0 230 230" xmlns="http://www.w3.org/2000/svg" xmlns:xlink="http://www.w3.org/1999/xlink"><style>:root>svg{display:none}:root>svg:target{display:block}</style><svg fill="none" viewBox="-1 -1 67 67" id="image-c-figure-1" xmlns="http://www.w3.org/2000/svg"><path fill="#55D102" fill-opacity=".4" d="M65 0H0v65h65z"/></svg><svg fill="none" viewBox="-1 -1 230 230" id="image-c-figure-10" xmlns="http://www.w3.org/2000/svg"><circle cx="113.615" cy="113.615" r="83.172" transform="rotate(150 113.615 113.615)" fill="#fff"/></svg><svg fill="none" viewBox="-1 -1 17 17" id="image-c-figure-11" xmlns="http://www.w3.org/2000/svg"><circle cx="7.5" cy="7.5" r="7.5" fill="#00A4F4"/></svg><svg fill="none" viewBox="-1 -1 88 88" id="image-c-figure-12" xmlns="http://www.w3.org/2000/svg"><path stroke="#fff" stroke-width="4" d="M2 2h82v82H2z"/></svg><svg fill="none" viewBox="-1 -1 49 49" id="image-c-figure-13" xmlns="http://www.w3.org/2000/svg"><path stroke="#00A4F4" stroke-width="4" d="M2 2h43v43H2z"/></svg><svg fill="none" viewBox="-1 -1 36 36" id="image-c-figure-14" xmlns="http://www.w3.org/2000/svg"><path stroke="#fff" stroke-width="4" d="M2 2h30v30H2z"/></svg><svg fill="none" viewBox="-1 -1 38 33" id="image-c-figure-15" xmlns="http://www.w3.org/2000/svg"><path d="M22.65 31h-9.346V7.881H0V0h36v7.881H22.65V31z" fill="#55D102"/></svg><svg fill="none" viewBox="-1 -1 37 37" id="image-c-figure-2" xmlns="http://www.w3.org/2000/svg"><path fill="#00A4F4" d="M35 0H0v35h35z"/></svg><svg fill="none" viewBox="-1 -1 24 20" id="image-c-figure-3" xmlns="http://www.w3.org/2000/svg"><path d="M4.464 0H0v13.715c0 2.164 1.718 3.918 3.837 3.918h13.05c2.55 0 4.62-2.112 4.62-4.718V6.07h-4.464v4.794c0 1.657-1.316 3-2.938 3H7.401c-1.622 0-2.937-1.343-2.937-3V0z" fill="#00A4F4"/></svg><svg fill="none" viewBox="-1 -1 16 32" id="image-c-figure-4" xmlns="http://www.w3.org/2000/svg"><path stroke="#00A4F4" stroke-width="4" d="M12.047 28.657L2.115.669"/></svg><svg fill="none" viewBox="-1 -1 24 21" id="image-c-figure-5" xmlns="http://www.w3.org/2000/svg"><path d="M13.53 18.252H7.949V4.64H0V0h21.506v4.64h-7.975v13.612z" fill="#55D102"/></svg><svg fill="none" viewBox="-1 -1 26 26" id="image-c-figure-6" xmlns="http://www.w3.org/2000/svg"><path stroke="#55D102" stroke-width="4" d="M1.586 22.586l21-21"/></svg><svg fill="none" viewBox="-1 -1 26 26" id="image-c-figure-7" xmlns="http://www.w3.org/2000/svg"><path fill="#55D102" d="M0 11.661L11.66.001l11.662 11.66L11.66 23.322z"/></svg><svg fill="none" viewBox="-1 -1 51 51" id="image-c-figure-8" xmlns="http://www.w3.org/2000/svg"><path stroke="#00A4F4" stroke-width="7" d="M3.5 3.5h42v42h-42z"/></svg><svg fill="none" viewBox="-1 -1 49 49" id="image-c-figure-9" xmlns="http://www.w3.org/2000/svg"><path stroke="#55D102" stroke-width="4" d="M2 2h43v43H2z"/></svg><svg fill="none" viewBox="-1 -1 72 72" id="image-contacts-icon-1" xmlns="http://www.w3.org/2000/svg"><g clip-path="url(#apclip0_1321_3190)"><path d="M69.534 29.453L53.228 16.641c-.35-.233-.932-.35-1.281-.116-.466.233-.7.582-.7 1.048v6.988c-3.377.35-6.871 2.213-10.482 5.59V18.739h6.989c.465 0 .931-.233 1.164-.7.233-.465.117-.931-.116-1.28L35.99.45c-.466-.582-1.398-.582-1.864 0L21.316 16.757c-.234.35-.35.816-.117 1.282.233.466.582.698 1.048.698h6.989v11.531c-3.61-3.377-7.105-5.24-10.483-5.59v-7.105c0-.466-.35-.815-.699-1.048-.466-.233-.931-.117-1.28.116L.465 29.453c-.35.233-.466.582-.466.932 0 .35.116.699.35.932l16.306 12.812c.349.233.931.349 1.28.116.467-.233.7-.582.7-1.048v-6.872c5.707.932 10.482 8.735 10.482 15.025v17.47c0 .7.466 1.165 1.165 1.165H39.6c.699 0 1.165-.465 1.165-1.164V51.35c0-6.29 4.775-14.093 10.482-15.025v6.872c0 .466.233.815.699 1.048.466.233.932.117 1.281-.116l16.306-12.812c.35-.233.466-.583.466-.932 0-.35-.233-.7-.466-.932zM53.577 40.751v-5.707c0-.7-.465-1.165-1.164-1.165-7.571 0-13.977 9.55-13.977 17.471v16.306h-6.988V51.35c0-7.92-6.406-17.471-13.977-17.471-.699 0-1.165.466-1.165 1.165v5.707L3.028 30.385l13.278-10.367v5.708c0 .698.466 1.164 1.165 1.164 3.727 0 7.57 2.213 11.997 6.872.349.35.815.466 1.28.233.467-.116.7-.582.7-1.048V17.573c0-.7-.466-1.165-1.165-1.165h-5.707L34.942 3.13l10.366 13.278H39.6c-.7 0-1.165.466-1.165 1.165v15.374c0 .582.233.932.699 1.048.466.233.932.117 1.281-.233 4.426-4.659 8.27-6.872 11.997-6.872.699 0 1.165-.465 1.165-1.164v-5.707l13.277 10.366L53.577 40.75z" fill="#fff"/></g><defs><clipPath id="apclip0_1321_3190"><path fill="#fff" d="M0 0h70v70H0z"/></clipPath></defs></svg><svg fill="none" viewBox="-1 -1 92 92" id="image-contacts-icon-2" xmlns="http://www.w3.org/2000/svg"><path d="M51.722 31.106c-.261 0-.518-.067-.747-.194L45 27.612l-5.974 3.3a1.554 1.554 0 01-2.28-1.621l1.157-7.083-4.886-5.004a1.563 1.563 0 01.872-2.635l6.7-1.023 3.008-6.403a1.55 1.55 0 012.807 0l3.007 6.404 6.698 1.021a1.563 1.563 0 01.877 2.632l-4.889 5.008 1.157 7.084a1.56 1.56 0 01-1.532 1.814zm-6.781-6.675l.82.388 4.3 2.375-.842-5.154a1.569 1.569 0 01.417-1.337l3.634-3.722-5.702-.871-.424-.777L45 10.77l-2.473 5.265-.861.19-4.936.755 3.627 3.714a1.576 1.576 0 01.423 1.35l-.84 5.149 5.001-2.763zm-6.937-2.844v.007-.007zm13.99-.005l.002.008-.002-.008zM53.339 35.589a1.406 1.406 0 00-2.791.347l.077.618h-11.25l.077-.618a1.407 1.407 0 00-2.79-.347L30.86 82.17a1.407 1.407 0 102.791.347l.42-3.373h21.858l.42 3.373a1.406 1.406 0 102.79-.347l-5.8-46.582zM36.547 59.255h16.904l.888 7.133H35.66l.888-7.133zm1.238-9.944h14.427l.889 7.132H36.898l.888-7.132zm13.189-9.945l.888 7.132H38.136l.889-7.132h11.95zM34.421 76.333l.888-7.132H54.69l.889 7.132H34.42z" fill="#fff"/></svg><svg fill="none" viewBox="-1 -1 20 20" id="image-cta-icon" xmlns="http://www.w3.org/2000/svg"><path d="M6.763 17.378c-.145.435-.38.44-.529-.008L.933 1.464c-.147-.44.1-.693.531-.57L17.37 5.44c.441.125.456.38.038.566L10.667 9 4 4l5 6.667-2.237 6.711z" fill="#000"/></svg><svg fill="none" viewBox="-1 -1 167 142" id="image-executive-search-icon" xmlns="http://www.w3.org/2000/svg"><rect x=".5" y=".5" width="164" height="139" rx="2.5" stroke="#00A4F4"/><g clip-path="url(#asclip0_1439_2408)"><path d="M122.419 53.502l-1.961 1.963c-.264.262-.526.49-.787.702a40.47 40.47 0 013.526 16.54c0 22.444-18.261 40.704-40.707 40.704-22.447 0-40.707-18.26-40.707-40.704 0-22.443 18.26-40.7 40.707-40.7 4.676 0 9.164.802 13.35 2.258v-.001c.399-.634.864-1.265 1.502-1.907l1.007-1.009a44.168 44.168 0 00-15.858-2.935c-24.462.001-44.3 19.833-44.3 44.292C38.19 97.168 58.028 117 82.49 117c24.465 0 44.298-19.832 44.298-44.295a44.097 44.097 0 00-4.37-19.203z" fill="#55D102"/><path d="M109.641 58.912h-4.026a26.178 26.178 0 013.214 12.597c0 14.522-11.816 26.337-26.339 26.337-14.524 0-26.34-11.815-26.34-26.337 0-14.521 11.816-26.336 26.34-26.336 4.083 0 7.953.934 11.405 2.6V43.84a29.838 29.838 0 00-11.405-2.257c-16.531 0-29.932 13.4-29.932 29.927s13.4 29.929 29.932 29.929c16.529 0 29.932-13.402 29.932-29.93 0-4.5-1.002-8.767-2.781-12.596z" fill="#55D102"/><path d="M135.53 31.804a2.71 2.71 0 00-1.181-1.152 3.83 3.83 0 00-1.383-.388l-8.55-.853c-.174-.013-.448-.133-.662-.352-.219-.215-.339-.489-.351-.663l-.856-8.552c-.067-.625-.233-1.247-.668-1.826a2.625 2.625 0 00-.872-.738 2.542 2.542 0 00-1.158-.28 2.874 2.874 0 00-1.314.333c-.373.196-.69.446-.976.73L100.303 35.32c-.7.71-1.2 1.566-1.584 2.48-.373.919-.627 1.877-.634 2.876v9.855c.002.675.176 1.304.46 1.868l-7.424 7.647a14.288 14.288 0 00-8.63-2.902c-7.937 0-14.367 6.433-14.367 14.365 0 7.933 6.43 14.366 14.366 14.366 7.933 0 14.367-6.433 14.367-14.366 0-3.394-1.185-6.508-3.154-8.967l7.69-7.918c.286.06.579.096.884.098h9.86c.999-.007 1.958-.26 2.875-.634.916-.385 1.771-.884 2.483-1.585l17.252-17.251c.284-.286.533-.602.729-.976a2.86 2.86 0 00.333-1.314c.004-.387-.091-.8-.279-1.157zm-53.04 50.48c-5.942 0-10.776-4.833-10.776-10.774 0-5.94 4.834-10.774 10.776-10.774 2.267 0 4.37.707 6.107 1.907l-7.395 7.617a1.796 1.796 0 102.577 2.502l7.39-7.61a10.7 10.7 0 012.096 6.357c0 5.942-4.833 10.775-10.775 10.775zm19.189-33.108v-8.499c-.007-.317.123-.937.362-1.502.228-.566.575-1.097.805-1.316l16.27-16.268.716 7.165c.05.482.188.93.371 1.347l-18.524 19.073zm13.277.788c-.222.23-.749.576-1.316.806-.565.24-1.185.369-1.502.362h-7.352l17.969-18.504a4.52 4.52 0 001.305.356l7.162.715-16.266 16.266z" fill="#00A4F4"/></g><defs><clipPath id="asclip0_1439_2408"><path fill="#fff" transform="translate(37 17)" d="M0 0h100v100H0z"/></clipPath></defs></svg><svg fill="none" viewBox="-1 -1 22 20" id="image-icon-attach" xmlns="http://www.w3.org/2000/svg"><path d="M3.803 17.835c-.911 0-1.767-.355-2.41-.998a3.412 3.412 0 010-4.82L11.928 1.482A4.464 4.464 0 0115.107.165c1.201 0 2.33.468 3.18 1.317a4.466 4.466 0 011.317 3.18c0 1.2-.468 2.33-1.317 3.178l-8.293 8.293a.637.637 0 11-.901-.901l8.293-8.293a3.2 3.2 0 00.943-2.278c0-.86-.335-1.67-.944-2.278a3.201 3.201 0 00-2.278-.943 3.2 3.2 0 00-2.278.943L2.294 12.918a2.137 2.137 0 000 3.017c.806.806 2.21.806 3.017 0l7.074-7.074a1.04 1.04 0 00.302-.73 1.033 1.033 0 00-1.762-.73l-4.831 4.832a.637.637 0 11-.901-.901l4.83-4.832a2.31 2.31 0 013.262 0c.437.436.677 1.016.677 1.631 0 .607-.247 1.202-.676 1.631l-7.074 7.075c-.643.643-1.499.998-2.41.998z" fill="#4E4E4E"/></svg><svg fill="none" viewBox="-1 -1 97 97" id="image-icon-chart" xmlns="http://www.w3.org/2000/svg"><circle cx="47.5" cy="47.5" r="47" stroke="#00A4F4"/><path d="M70.497 44.663h-3.333V38.83a.833.833 0 00-.833-.834h-8.198l-9.299-3.1v-1.899h5.832a2.5 2.5 0 002.5-2.5V25.5a2.5 2.5 0 00-2.5-2.5h-13.33a2.5 2.5 0 00-2.5 2.5v4.999a2.5 2.5 0 002.5 2.5h5.832v1.899L37.74 38.04a.833.833 0 000 1.583l9.428 3.14v1.899h-3.333a2.5 2.5 0 00-2.5 2.5v.833h-4.999v-.834a2.5 2.5 0 00-2.5-2.5h-8.331a2.5 2.5 0 00-2.5 2.5v3.333a2.5 2.5 0 002.5 2.5h3.333v8.398a5.832 5.832 0 106.599 6.6h6.798a5.833 5.833 0 100-1.667h-6.798a5.832 5.832 0 00-4.933-4.933v-8.398h3.333a2.5 2.5 0 002.5-2.5v-.833h4.998v.833a2.5 2.5 0 002.5 2.5h8.332a2.5 2.5 0 002.5-2.5v-.833h4.999v.833a2.5 2.5 0 002.5 2.5h3.332v8.398a5.832 5.832 0 101.666 0v-8.398h3.333a2.5 2.5 0 002.5-2.5v-3.333a2.5 2.5 0 00-2.5-2.5zm-22.496 18.33a4.166 4.166 0 110 8.332 4.166 4.166 0 010-8.332zm-14.164 4.166a4.166 4.166 0 11-8.332 0 4.166 4.166 0 018.332 0zm.833-16.664c0 .46-.373.833-.833.833h-8.332a.833.833 0 01-.833-.833v-3.333c0-.46.373-.833.833-.833h8.332c.46 0 .833.373.833.833v3.333zm6.666-19.163a.833.833 0 01-.834-.833v-5c0-.46.373-.833.834-.833h13.33c.46 0 .834.373.834.834v4.999c0 .46-.373.833-.834.833h-13.33zm-.699 7.499l7.364-2.455 7.364 2.455L48 41.285l-7.364-2.454zM53 50.495c0 .46-.373.833-.833.833h-8.332a.833.833 0 01-.833-.833v-3.333c0-.46.373-.833.833-.833h8.332c.46 0 .833.373.833.833v3.333zm6.666-3.333v.834h-5v-.834a2.5 2.5 0 00-2.5-2.5h-3.332v-1.899l9.3-3.1h7.364v5h-3.333a2.5 2.5 0 00-2.5 2.5zM70.497 67.16a4.166 4.166 0 11-8.332 0 4.166 4.166 0 018.332 0zm.833-16.664c0 .46-.373.833-.833.833h-8.332a.833.833 0 01-.833-.833v-3.333c0-.46.373-.833.833-.833h8.332c.46 0 .833.373.833.833v3.333z" fill="#00A4F4"/></svg><svg fill="none" viewBox="-1 -1 32 32" id="image-icon-cross" xmlns="http://www.w3.org/2000/svg"><path d="M16.657 15l13-12.999A1.172 1.172 0 1027.998.344l-13 13L2 .344A1.172 1.172 0 10.343 2.001l13 13-13 13A1.172 1.172 0 102 29.656l13-12.999 13 13a1.169 1.169 0 001.657 0c.457-.458.457-1.2 0-1.658l-13-13z" fill="#000"/></svg><svg fill="none" viewBox="-1 -1 97 97" id="image-icon-dashboard" xmlns="http://www.w3.org/2000/svg"><circle cx="47.5" cy="47.5" r="47" stroke="#00A4F4"/><path d="M48 36.417c.598 0 1.084-.485 1.084-1.083V31a1.083 1.083 0 00-2.167 0v4.334c0 .598.485 1.083 1.083 1.083zM59.465 44.4l-.03.017.004.005-8.553 5.036a4.461 4.461 0 101.192 1.81l8.456-4.984a1.083 1.083 0 10-1.07-1.884zM48 54.834a2.167 2.167 0 110-4.333 2.167 2.167 0 010 4.333zM64.25 52.667c0 .598.485 1.084 1.083 1.084h4.334a1.083 1.083 0 000-2.167h-4.334c-.598 0-1.083.485-1.083 1.083zM30.667 51.584h-4.334a1.083 1.083 0 000 2.166h4.334a1.083 1.083 0 000-2.166zM38.32 33.594a1.084 1.084 0 00-1.866 1.1l1.841 3.128a1.084 1.084 0 001.867-1.1l-1.842-3.128zM62.242 44.081c.293.522.954.706 1.475.412l3.197-1.805a1.083 1.083 0 10-1.065-1.887l-3.197 1.805c-.52.294-.704.955-.41 1.475zM33.348 42.605L30.15 40.8a1.084 1.084 0 00-1.065 1.887l3.197 1.805a1.083 1.083 0 001.065-1.887zM56.215 38.204h.001c.515.304 1.18.133 1.484-.382v-.001l1.842-3.128a1.083 1.083 0 10-1.867-1.1l-1.841 3.127a1.083 1.083 0 00.381 1.484z" fill="#00A4F4"/><path d="M66.331 34.072c-5.092-4.962-11.866-7.594-19.061-7.395C33.336 27.052 22 38.692 22 52.632v5.812a2.912 2.912 0 002.925 2.89h46.15A2.912 2.912 0 0074 58.444v-6.319c0-6.825-2.724-13.24-7.669-18.053zm5.502 24.375a.743.743 0 01-.758.722h-46.15a.743.743 0 01-.758-.722v-5.815c0-12.774 10.39-23.447 23.161-23.789a23.854 23.854 0 0117.492 6.781c4.522 4.403 7.013 10.264 7.013 16.501v6.322z" fill="#00A4F4"/></svg><svg fill="none" viewBox="-1 -1 21 21" id="image-icon-download" xmlns="http://www.w3.org/2000/svg"><path d="M17.516 11.615v5.158c0 .41-.333.743-.743.743H2.227a.743.743 0 01-.743-.743v-5.158H0v5.158A2.23 2.23 0 002.227 19h14.546A2.23 2.23 0 0019 16.773v-5.158h-1.484z" fill="#fff"/><path d="M13.063 8.747l-2.82 2.82V0H8.758v11.568l-2.82-2.82-1.05 1.049L9.5 14.409l4.612-4.612-1.05-1.05z" fill="#fff"/></svg><svg viewBox="-1 -1 21 21" id="image-icon-download-hover" xmlns="http://www.w3.org/2000/svg"><g fill="#0E141A" fill-rule="nonzero"><path d="M17.516 11.615v5.158c0 .41-.333.743-.743.743H2.227a.743.743 0 01-.743-.743v-5.158H0v5.158A2.23 2.23 0 002.227 19h14.546A2.23 2.23 0 0019 16.773v-5.158h-1.484z"/><path d="M13.063 8.747l-2.82 2.82V0H8.758v11.568l-2.82-2.82-1.05 1.049L9.5 14.409l4.612-4.612z"/></g></svg><svg fill="none" viewBox="-1 -1 22 22" id="image-icon-fb" xmlns="http://www.w3.org/2000/svg"><path d="M10 0C4.477 0 0 4.477 0 10s4.477 10 10 10 10-4.477 10-10S15.523 0 10 0zm3.815 5.093h-1.383c-1.085 0-1.294.516-1.294 1.272v1.667h2.586l-.001 2.612h-2.585v6.702H8.44v-6.702H6.185V8.032H8.44V6.106c0-2.235 1.366-3.452 3.36-3.452l2.015.003v2.436z" fill="#00A4F4"/></svg><svg fill="none" viewBox="-1 -1 22 22" id="image-icon-ig" xmlns="http://www.w3.org/2000/svg"><path d="M14.48 0H5.52A5.525 5.525 0 000 5.52v8.96A5.525 5.525 0 005.52 20h8.96A5.526 5.526 0 0020 14.48V5.52A5.525 5.525 0 0014.48 0zm3.745 14.48a3.75 3.75 0 01-3.744 3.745H5.519a3.749 3.749 0 01-3.745-3.744V5.519A3.749 3.749 0 015.52 1.774h8.961a3.75 3.75 0 013.745 3.745v8.962z" fill="#00A4F4"/><path d="M10 4.847A5.16 5.16 0 004.846 10 5.16 5.16 0 0010 15.153 5.16 5.16 0 0015.153 10 5.16 5.16 0 0010 4.847zm0 8.532A3.383 3.383 0 016.62 10 3.383 3.383 0 0110 6.621 3.383 3.383 0 0113.379 10a3.383 3.383 0 01-3.38 3.379zM15.37 3.342a1.307 1.307 0 00-1.302 1.301c0 .342.14.678.382.92s.578.382.92.382c.343 0 .677-.14.92-.381a1.307 1.307 0 000-1.84 1.307 1.307 0 00-.92-.382z" fill="#00A4F4"/></svg><svg fill="none" viewBox="-1 -1 22 22" id="image-icon-in" xmlns="http://www.w3.org/2000/svg"><path d="M.65 19.135h2.6a.65.65 0 00.649-.65V7.12a.65.65 0 00-.65-.649H.65a.65.65 0 00-.649.65v11.364c0 .359.29.65.65.65zM.65 4.473h2.6a.65.65 0 00.649-.65V1.516a.65.65 0 00-.65-.65H.65a.65.65 0 00-.649.65v2.309c0 .358.29.649.65.649zM19.022 7.79c-.366-.482-.904-.877-1.617-1.187-.712-.31-1.498-.465-2.359-.465-1.746 0-3.226.666-4.439 2-.241.265-.417.207-.417-.152V7.12a.65.65 0 00-.65-.649H7.219a.65.65 0 00-.65.65v11.364c0 .359.291.65.65.65h2.6a.65.65 0 00.65-.65v-3.952c0-1.647.099-2.775.298-3.386.198-.61.566-1.1 1.103-1.47a3.126 3.126 0 011.818-.556c.527 0 .978.13 1.353.389.374.259.645.622.811 1.09.167.466.25 1.495.25 3.087v4.798c0 .359.29.65.65.65h2.6a.65.65 0 00.649-.65V12.05c0-1.138-.072-2.012-.215-2.622a4.296 4.296 0 00-.763-1.638z" fill="#00A4F4"/></svg><svg fill="none" viewBox="-1 -1 97 97" id="image-icon-issue" xmlns="http://www.w3.org/2000/svg"><path d="M94.5 47.5c0 25.957-21.043 47-47 47s-47-21.043-47-47 21.043-47 47-47 47 21.043 47 47z" stroke="#00A4F4"/><path d="M58.156 27.469c-5.17 0-9.375 4.205-9.375 9.375s4.206 9.375 9.375 9.375c5.17 0 9.375-4.206 9.375-9.375 0-5.17-4.205-9.375-9.375-9.375zm0 17.187c-4.308 0-7.812-3.504-7.812-7.812s3.504-7.813 7.812-7.813 7.813 3.505 7.813 7.813-3.505 7.812-7.813 7.812z" fill="#00A4F4"/><path d="M58.248 29.813h-.183a2.255 2.255 0 00-2.23 2.57l.668 3.783c.104.832.815 1.459 1.653 1.459.839 0 1.55-.627 1.648-1.42l.679-3.859a2.255 2.255 0 00-2.235-2.534zm.011 6.159c-.013.104-.187.143-.211-.04l-.668-3.784a.69.69 0 01.684-.773h.184c.38 0 .69.31.69.69 0 .037-.001.05 0 .047l-.679 3.86zM58.156 39.188a2.347 2.347 0 00-2.343 2.343 2.347 2.347 0 002.343 2.344 2.347 2.347 0 002.344-2.344 2.347 2.347 0 00-2.344-2.343zm0 3.124a.782.782 0 11.002-1.564.782.782 0 01-.002 1.565z" fill="#00A4F4"/><path d="M72.219 39.806v-5.925l-2.059-.484a12.407 12.407 0 00-1.079-2.603l1.114-1.8-4.19-4.19-1.799 1.115a12.417 12.417 0 00-2.603-1.08l-.484-2.058h-5.925l-.485 2.059c-.905.26-1.777.62-2.603 1.079l-1.798-1.114-4.19 4.19 1.113 1.799a12.45 12.45 0 00-1.079 2.603l-2.058.484v5.925l2.058.485c.03.106.076.207.109.311l-9.522 9.523h-5.145v-8.64c3.51-.39 6.25-3.372 6.25-6.985a7.04 7.04 0 00-7.032-7.031 7.04 7.04 0 00-7.03 7.031c0 3.613 2.74 6.595 6.25 6.985v10.203h5.145l-7.26 7.26-.11.109-3.865 9.277a2.086 2.086 0 002.724 2.725l9.278-3.866 10.493-10.495v8.27h6.297c.39 3.51 3.372 6.25 6.985 6.25a7.04 7.04 0 007.031-7.03 6.98 6.98 0 00-.912-3.452l3.027-3.027-1.105-1.105-2.854 2.854a7.006 7.006 0 00-5.187-2.302c-3.613 0-6.596 2.74-6.985 6.25H48v-8.27l6.397-6.397c.105.034.206.079.312.11l.485 2.057h5.925l.484-2.058c.906-.26 1.777-.621 2.603-1.08l1.799 1.115 4.19-4.19-1.114-1.8c.458-.824.82-1.696 1.08-2.602l2.058-.485zM25.344 34.5a5.475 5.475 0 015.468-5.469 5.475 5.475 0 015.47 5.469 5.475 5.475 0 01-5.47 5.469 5.475 5.475 0 01-5.468-5.469zm34.375 24.219a5.45 5.45 0 014.083 1.843l-4.864 4.865-1.792-1.792-1.105 1.105 2.897 2.896 5.74-5.74c.324.698.51 1.473.51 2.291a5.475 5.475 0 01-5.47 5.47 5.475 5.475 0 01-5.468-5.47 5.475 5.475 0 015.469-5.468zM28.93 60.42l1.881.47v3.297h3.297l.47 1.88-4.411 1.839-3.074-3.074 1.837-4.412zm-2.865 9.195a.531.531 0 01-.722-.48c0-.07.013-.137.04-.2l1.059-2.544 2.165 2.165-2.542 1.059zm9.857-4.613l-.594-2.378h-1.85l7.26-7.26-1.104-1.105-7.26 7.26v-1.849l-2.378-.594 16.891-16.892c.113.238.215.48.343.71l-1.114 1.799 1.542 1.542-.993.994 1.104 1.104.994-.993 1.543 1.543 1.798-1.114c.23.127.472.23.71.342L35.922 65.003zm32.958-26.016l-.114.465a10.835 10.835 0 01-1.265 3.05l-.248.408.96 1.552-2.44 2.44-1.551-.96-.41.248c-.949.575-1.975 1-3.05 1.263l-.465.114-.417 1.777h-3.45l-.418-1.776-.465-.114a10.859 10.859 0 01-3.05-1.263l-.409-.249-1.551.96-2.44-2.44.96-1.551-.249-.409a10.86 10.86 0 01-1.264-3.05l-.114-.465-1.775-.418v-3.45l1.775-.418.114-.465c.264-1.077.69-2.102 1.265-3.05l.249-.409-.96-1.551 2.44-2.44 1.55.96.41-.248c.95-.575 1.975-1.001 3.05-1.264l.465-.114.417-1.776h3.45l.418 1.775.465.115c1.074.262 2.1.688 3.05 1.263l.41.248 1.551-.96 2.44 2.44-.96 1.552.248.408c.575.948 1 1.974 1.265 3.05l.114.465 1.774.419v3.45l-1.775.418z" fill="#00A4F4"/><path d="M33.385 38.177l1.105-1.104-2.573-2.573 2.573-2.573-1.105-1.104-2.572 2.572-2.573-2.572-1.105 1.104 2.573 2.573-2.573 2.573 1.105 1.104 2.573-2.572 2.572 2.572zM42.62 51.269l1.105-1.105 1.105 1.105-1.105 1.104-1.104-1.104zM40.41 53.477l1.106-1.104 1.104 1.105-1.104 1.104-1.105-1.105zM44.83 49.058l1.05-1.049 1.104 1.105-1.049 1.049-1.104-1.105z" fill="#00A4F4"/></svg><svg fill="none" viewBox="-1 -1 32 32" id="image-icon-menu" xmlns="http://www.w3.org/2000/svg"><g clip-path="url(#bdclip0)" fill="#00A4F4"><path d="M29.375 5.625H.625c-.345 0-.625.448-.625 1s.28 1 .625 1h28.75c.345 0 .625-.448.625-1s-.28-1-.625-1zM29.375 14H.625C.28 14 0 14.448 0 15s.28 1 .625 1h28.75c.345 0 .625-.448.625-1s-.28-1-.625-1zM29.375 22H.625C.28 22 0 22.448 0 23s.28 1 .625 1h28.75c.345 0 .625-.448.625-1s-.28-1-.625-1z"/></g><defs><clipPath id="bdclip0"><path fill="#fff" d="M0 0h30v30H0z"/></clipPath></defs></svg><svg fill="none" viewBox="-1 -1 97 97" id="image-icon-motivation" xmlns="http://www.w3.org/2000/svg"><circle cx="47.5" cy="47.5" r="47" stroke="#00A4F4"/><path d="M47 25.883a.977.977 0 01-.977-.977v-2.93a.977.977 0 011.954 0v2.93c0 .54-.438.977-.977.977zM26.492 46.977h-3.515a.977.977 0 010-1.954h3.515a.977.977 0 010 1.954zM71.023 46.977h-3.515a.977.977 0 010-1.954h3.515a.977.977 0 010 1.954zM31.808 31.604l-2.072-2.073a.977.977 0 011.381-1.38l2.073 2.072a.977.977 0 01-1.382 1.38zM62.192 31.604a.977.977 0 01-1.382-1.381l2.073-2.073a.977.977 0 111.38 1.381l-2.071 2.073zM47 71a.977.977 0 110-1.953A.977.977 0 0147 71z" fill="#00A4F4"/><path d="M61.16 44.535v7.324c0 5.353-4.308 8.427-5.86 9.36v8.804c0 .54-.436.977-.976.977h-2.93a.977.977 0 010-1.953h1.954v-8.399a.98.98 0 01.538-.872c.053-.027 5.321-2.748 5.321-7.917v-7.324a1.957 1.957 0 00-1.953-1.954H46.61a4.891 4.891 0 004.785 3.907h2.93a.977.977 0 110 1.953c-4.309 0-7.813 3.505-7.813 7.813a.977.977 0 11-1.953 0 4.888 4.888 0 00-4.883-4.883.977.977 0 010-1.953 6.834 6.834 0 015.664 3.012 9.827 9.827 0 013.72-4.399 6.875 6.875 0 01-3.85-3.517 3.887 3.887 0 01-2.605.994c-.25 0-.506.004-.741.004-.46 0-.905-.011-1.314-.093a3.912 3.912 0 01-3.804 3.022 3.88 3.88 0 01-1.953-.525v3.943c0 5.169 5.268 7.89 5.32 7.916.33.165.54.504.54.873v8.399h1.953a.977.977 0 010 1.953h-2.93a.977.977 0 01-.977-.977V61.22c-1.551-.934-5.86-4.008-5.86-9.36V39.554a3.91 3.91 0 013.907-3.907 3.88 3.88 0 011.978.54 3.911 3.911 0 013.882-3.47 3.88 3.88 0 011.978.54 3.911 3.911 0 013.88-3.469 3.911 3.911 0 013.882 3.47 3.88 3.88 0 011.978-.54 3.91 3.91 0 013.907 3.906v4.127a3.913 3.913 0 012.93 3.783zm-24.414-6.933a1.955 1.955 0 00-1.953 1.953v4.98c0 1.077.876 1.953 1.953 1.953a1.955 1.955 0 001.953-1.953v-4.98a1.955 1.955 0 00-1.953-1.953zm5.86-2.93a1.955 1.955 0 00-1.954 1.953v6.445c0 .277.056.355.057.356.146.145.994.139 1.501.135l.395-.002a1.955 1.955 0 001.954-1.953v-4.981a1.955 1.955 0 00-1.953-1.953zm7.812-.977a1.955 1.955 0 00-1.953-1.953 1.955 1.955 0 00-1.953 1.953v6.934h3.906v-6.934zm3.906.977a1.955 1.955 0 00-1.953 1.953v4.004h3.906v-4.004a1.955 1.955 0 00-1.953-1.953z" fill="#00A4F4"/></svg><svg fill="none" viewBox="-1 -1 97 97" id="image-icon-person" xmlns="http://www.w3.org/2000/svg"><circle cx="47.5" cy="47.5" r="47" stroke="#00A4F4"/><path d="M40.97 44.844a.781.781 0 01-.78-.782v-3.374a.781.781 0 111.562 0v3.374a.78.78 0 01-.782.782zM55.033 44.875a.781.781 0 01-.781-.781v-3.517a.781.781 0 111.562 0v3.517c0 .43-.349.781-.781.781z" fill="#00A4F4"/><path d="M55.033 41.359a.781.781 0 01-.781-.782 6.648 6.648 0 00-6.643-6.64 6.647 6.647 0 00-6.639 6.64.781.781 0 11-1.562 0c0-4.522 3.679-8.202 8.201-8.202 4.525 0 8.205 3.68 8.205 8.202 0 .431-.349.782-.781.782z" fill="#00A4F4"/><path d="M55.033 42.31a.78.78 0 01-.62-.307c-1.895-2.472-2.747-2.197-5.018-1.46-2 .646-4.735 1.533-9.328.806a.78.78 0 11.245-1.543c4.217.665 6.754-.152 8.602-.75 2.332-.755 4.175-1.351 6.74 1.997a.78.78 0 01-.62 1.256z" fill="#00A4F4"/><path d="M51.126 40.059a.782.782 0 01-.634-1.237l2.344-3.256a.782.782 0 011.269.913l-2.344 3.255a.783.783 0 01-.635.325zM39.408 58.156a.78.78 0 01-.781-.781 4.692 4.692 0 014.687-4.688.78.78 0 110 1.563 3.128 3.128 0 00-3.125 3.125.78.78 0 01-.781.781z" fill="#00A4F4"/><path d="M44.877 54.25h-1.563a.78.78 0 110-1.563h1.563a.78.78 0 110 1.563zM39.408 60.5a.78.78 0 01-.781-.781v-2.344a.78.78 0 111.562 0v2.344a.78.78 0 01-.781.781z" fill="#00A4F4"/><path d="M40.19 61.281c-.863 0-1.563-.7-1.563-1.562 0-.415.326-.714.74-.737.44-.02.775.325.822.736a.781.781 0 010 1.563zM56.595 58.156a.78.78 0 01-.78-.781 3.128 3.128 0 00-3.126-3.125.78.78 0 110-1.563 4.692 4.692 0 014.688 4.688.78.78 0 01-.782.781z" fill="#00A4F4"/><path d="M52.69 54.25h-1.563a.78.78 0 110-1.563h1.562a.78.78 0 110 1.563zM56.595 60.5a.78.78 0 01-.78-.781v-2.344a.78.78 0 111.562 0v2.344a.78.78 0 01-.782.781z" fill="#00A4F4"/><path d="M55.814 61.281a.78.78 0 110-1.562.78.78 0 111.563 0c0 .861-.702 1.562-1.563 1.562z" fill="#00A4F4"/><path d="M55.814 61.281H40.19a.78.78 0 110-1.562h15.625a.78.78 0 110 1.562zM44.877 54.25a.78.78 0 01-.782-.781v-3.075a.78.78 0 111.563 0v3.075a.78.78 0 01-.781.781zM51.127 54.25a.78.78 0 01-.782-.781v-3.075a.78.78 0 111.563 0v3.075a.78.78 0 01-.781.781z" fill="#00A4F4"/><path d="M48 51.906c-4.307 0-7.81-3.504-7.81-7.81a.781.781 0 011.562 0A6.256 6.256 0 0048 50.343a6.257 6.257 0 006.252-6.249.781.781 0 011.562 0c0 4.307-3.505 7.811-7.814 7.811zM46.438 55.031a.785.785 0 01-.348-.082l-1.563-.781a.781.781 0 11.7-1.398l1.562.781a.782.782 0 01-.35 1.48z" fill="#00A4F4"/><path d="M46.44 55.031a.783.783 0 01-.35-1.48l1.562-.782a.782.782 0 01.699 1.398l-1.563.782a.777.777 0 01-.348.082zM49.565 55.031a.783.783 0 01-.35-1.48l1.562-.782a.782.782 0 01.699 1.398l-1.563.782a.777.777 0 01-.348.082z" fill="#00A4F4"/><path d="M49.563 55.031a.785.785 0 01-.348-.082l-1.563-.781a.781.781 0 11.7-1.398l1.562.781a.782.782 0 01-.35 1.48zM48.002 29.25a3.128 3.128 0 01-3.125-3.125A3.128 3.128 0 0148.002 23a3.128 3.128 0 013.125 3.125 3.128 3.128 0 01-3.125 3.125zm0-4.688c-.862 0-1.563.701-1.563 1.563s.7 1.563 1.563 1.563c.861 0 1.562-.701 1.562-1.563s-.701-1.563-1.562-1.563zM48.002 73a3.128 3.128 0 01-3.125-3.125 3.128 3.128 0 013.125-3.125 3.128 3.128 0 013.125 3.125A3.128 3.128 0 0148.002 73zm0-4.688c-.862 0-1.563.701-1.563 1.563s.7 1.563 1.563 1.563c.861 0 1.562-.701 1.562-1.563s-.701-1.563-1.562-1.563zM32.534 36.438a3.878 3.878 0 01-2.762-1.144 3.885 3.885 0 01-1.145-2.762 3.88 3.88 0 011.143-2.762 3.879 3.879 0 012.763-1.144c1.044 0 2.025.406 2.762 1.144a3.878 3.878 0 011.145 2.762 3.88 3.88 0 01-1.145 2.762 3.88 3.88 0 01-2.761 1.144zm-.001-6.25c-.627 0-1.215.244-1.658.687a2.327 2.327 0 00-.686 1.657c0 .625.245 1.214.688 1.657.884.884 2.428.885 3.314 0a2.33 2.33 0 00.686-1.657c0-.626-.243-1.215-.686-1.657a2.33 2.33 0 00-1.658-.686zM63.47 67.374a3.881 3.881 0 01-2.762-1.144 3.91 3.91 0 010-5.524 3.88 3.88 0 012.762-1.145c1.043 0 2.024.407 2.761 1.145a3.91 3.91 0 010 5.524 3.881 3.881 0 01-2.762 1.144zm0-6.25a2.344 2.344 0 00-1.657 4c.886.886 2.428.886 3.313 0 .914-.913.914-2.4 0-3.314a2.325 2.325 0 00-1.656-.686zM26.128 51.123A3.13 3.13 0 0123 48a3.129 3.129 0 013.125-3.126c.835 0 1.62.325 2.21.916a3.127 3.127 0 01-2.207 5.334zm-.002-4.686c-.862 0-1.564.7-1.564 1.563 0 .861.702 1.561 1.564 1.561h.002a1.562 1.562 0 00-.002-3.124zM69.875 51.124A3.128 3.128 0 0166.752 48a3.128 3.128 0 013.123-3.126A3.128 3.128 0 0173 48a3.128 3.128 0 01-3.125 3.125zm0-4.687a1.563 1.563 0 000 3.125 1.564 1.564 0 000-3.125zM32.53 67.373a3.876 3.876 0 01-2.76-1.143 3.91 3.91 0 010-5.524 3.875 3.875 0 012.762-1.145c1.043 0 2.024.407 2.762 1.145a3.88 3.88 0 011.145 2.761 3.88 3.88 0 01-1.145 2.762 3.888 3.888 0 01-2.764 1.144zm.002-6.249a2.346 2.346 0 00-1.656 4c.885.888 2.426.884 3.313 0 .443-.443.687-1.031.687-1.657 0-.626-.244-1.214-.687-1.657a2.326 2.326 0 00-1.657-.686zM63.469 36.047a3.496 3.496 0 01-2.487-1.03 3.49 3.49 0 01-1.03-2.486c0-.94.366-1.822 1.03-2.486a3.492 3.492 0 012.486-1.03c.94 0 1.821.366 2.486 1.03a3.492 3.492 0 011.03 2.486c0 .94-.366 1.823-1.03 2.487a3.493 3.493 0 01-2.485 1.029zm-.001-5.469c-.521 0-1.012.203-1.381.572-.37.369-.572.86-.572 1.38 0 .523.203 1.012.572 1.381.74.74 2.026.738 2.761.001.37-.369.572-.86.572-1.381 0-.523-.203-1.013-.572-1.383a1.942 1.942 0 00-1.38-.57z" fill="#00A4F4"/><path d="M50.34 70.533a.782.782 0 01-.081-1.559 21.043 21.043 0 0010.382-4.086.78.78 0 11.936 1.25 22.583 22.583 0 01-11.153 4.39.63.63 0 01-.084.005zM65.513 61.887a.78.78 0 01-.624-1.25 21.031 21.031 0 004.085-10.38.78.78 0 111.554.165 22.582 22.582 0 01-4.39 11.152.776.776 0 01-.625.313zM69.75 46.442a.78.78 0 01-.775-.7 20.993 20.993 0 00-4.315-10.68.78.78 0 111.233-.959 22.558 22.558 0 014.636 11.475.78.78 0 01-.778.864zM61.418 31.505a.782.782 0 01-.479-.165 21.008 21.008 0 00-10.68-4.314.78.78 0 11.164-1.553 22.568 22.568 0 0111.475 4.634.78.78 0 01-.48 1.398zM34.894 31.266a.78.78 0 01-.47-1.406 22.584 22.584 0 0111.156-4.388.781.781 0 11.164 1.554 21.015 21.015 0 00-10.383 4.085.776.776 0 01-.467.155zM26.25 46.44a.781.781 0 01-.777-.864c.43-4.04 1.947-7.899 4.39-11.155a.78.78 0 111.249.937 21.025 21.025 0 00-4.087 10.384.78.78 0 01-.776.699zM30.496 61.902a.783.783 0 01-.626-.312 22.588 22.588 0 01-4.398-11.169.78.78 0 111.554-.165c.4 3.766 1.816 7.36 4.094 10.395a.782.782 0 01-.624 1.25zM45.661 70.533a.745.745 0 01-.082-.005 22.583 22.583 0 01-11.156-4.39.78.78 0 11.937-1.249 21.03 21.03 0 0010.383 4.086.781.781 0 01-.082 1.558z" fill="#00A4F4"/></svg><svg fill="none" viewBox="-1 -1 62 62" id="image-icon-play" xmlns="http://www.w3.org/2000/svg"><circle cx="30" cy="30" r="29" stroke="#fff" stroke-width="2"/><path d="M42 30L24 40.392V19.608L42 30z" fill="#fff"/></svg><svg fill="none" viewBox="-1 -1 97 97" id="image-icon-settings" xmlns="http://www.w3.org/2000/svg"><circle cx="47.5" cy="47.5" r="47" stroke="#00A4F4"/><path d="M31 38.5l-1.5 4-5 1.5v8l4.5 1 2 5-2.5 3.5 6 6L38 65l4.5 2 1 4.5H52l1-4.5 4.5-2 4 2.5 6-6-2.5-4 2-4.5 4.5-1v-8L67 43l-2-5 2.5-3.5-5.5-6-4.5 2.5-4-1.5-1-5h-9l-1 5-4 1.5-4-2.5-6 6 2.5 4z" stroke="#00A4F4" stroke-width="2" stroke-linejoin="round"/><circle cx="48" cy="48" r="11" stroke="#00A4F4" stroke-width="2"/></svg><svg fill="none" viewBox="-1 -1 32 32" id="image-icon-share" xmlns="http://www.w3.org/2000/svg"><circle cx="15" cy="15" r="14.5" stroke="#777"/><path d="M18.416 18.562c-.773 0-1.454.398-1.851.999l-4.847-2.615a2.487 2.487 0 000-2.35l4.213-2.75a3.057 3.057 0 002.485 1.28 3.066 3.066 0 003.063-3.063A3.066 3.066 0 0018.416 7a3.066 3.066 0 00-2.828 4.238l-4.281 2.793a2.497 2.497 0 00-1.801-.767A2.509 2.509 0 007 15.77a2.509 2.509 0 002.506 2.506c.704 0 1.34-.293 1.796-.763l4.976 2.684a2.21 2.21 0 00-.081.584c0 1.224.995 2.219 2.218 2.219a2.221 2.221 0 002.22-2.219 2.22 2.22 0 00-2.22-2.219zm0-10.865a2.369 2.369 0 012.366 2.366 2.369 2.369 0 01-2.366 2.366 2.369 2.369 0 01-2.366-2.366 2.369 2.369 0 012.366-2.366zm-8.91 9.882c-.997 0-1.809-.811-1.809-1.809 0-.997.812-1.81 1.81-1.81.997 0 1.808.813 1.808 1.81 0 .998-.811 1.81-1.809 1.81zm8.91 4.724a1.524 1.524 0 01-1.522-1.522c0-.839.683-1.522 1.522-1.522s1.522.683 1.522 1.522c0 .84-.683 1.522-1.522 1.522z" fill="#777"/></svg><svg fill="none" viewBox="-1 -1 32 32" id="image-icon-share-hover" xmlns="http://www.w3.org/2000/svg"><circle cx="15" cy="15" r="14.5" stroke="#00A4F4"/><path d="M18.416 18.562c-.773 0-1.454.398-1.851.999l-4.847-2.615a2.487 2.487 0 000-2.35l4.213-2.75a3.057 3.057 0 002.485 1.28 3.066 3.066 0 003.063-3.063A3.066 3.066 0 0018.416 7a3.066 3.066 0 00-2.828 4.238l-4.281 2.793a2.497 2.497 0 00-1.801-.767A2.509 2.509 0 007 15.77a2.509 2.509 0 002.506 2.506c.704 0 1.34-.293 1.796-.763l4.976 2.684a2.21 2.21 0 00-.081.584c0 1.224.995 2.219 2.218 2.219a2.221 2.221 0 002.22-2.219 2.22 2.22 0 00-2.22-2.219zm0-10.865a2.369 2.369 0 012.366 2.366 2.369 2.369 0 01-2.366 2.366 2.369 2.369 0 01-2.366-2.366 2.369 2.369 0 012.366-2.366zm-8.91 9.882c-.997 0-1.809-.811-1.809-1.809 0-.997.812-1.81 1.81-1.81.997 0 1.808.813 1.808 1.81 0 .998-.811 1.81-1.809 1.81zm8.91 4.724a1.524 1.524 0 01-1.522-1.522c0-.839.683-1.522 1.522-1.522s1.522.683 1.522 1.522c0 .84-.683 1.522-1.522 1.522z" fill="#00A4F4"/></svg><svg fill="none" viewBox="-1 -1 22 20" id="image-icon-tw" xmlns="http://www.w3.org/2000/svg"><path d="M19.547 2.702a7.58 7.58 0 01-.968.353c.391-.442.689-.962.87-1.531a.323.323 0 00-.47-.376 7.613 7.613 0 01-2.251.89A4.315 4.315 0 0013.723.812 4.298 4.298 0 009.464 5.66 10.992 10.992 0 011.92 1.658a.322.322 0 00-.529.042C1.011 2.352.81 3.099.81 3.859a4.29 4.29 0 001.022 2.783 3.637 3.637 0 01-.575-.257.322.322 0 00-.48.275v.057c0 1.544.831 2.934 2.102 3.692a3.703 3.703 0 01-.327-.047.322.322 0 00-.367.415 4.292 4.292 0 003.145 2.878 7.595 7.595 0 01-4.06 1.159c-.304 0-.61-.018-.91-.054a.323.323 0 00-.212.592 11.58 11.58 0 006.261 1.835c4.372 0 7.106-2.061 8.63-3.79 1.901-2.156 2.991-5.01 2.991-7.83 0-.118-.002-.237-.005-.356a8.347 8.347 0 001.92-2.034.323.323 0 00-.398-.475z" fill="#00A4F4"/></svg><svg fill="none" viewBox="-1 -1 27 27" id="image-icon-user" xmlns="http://www.w3.org/2000/svg"><path d="M21.339 16.161a12.452 12.452 0 00-4.75-2.98 7.224 7.224 0 003.138-5.954C19.727 3.242 16.485 0 12.5 0 8.515 0 5.273 3.242 5.273 7.227a7.224 7.224 0 003.138 5.955 12.452 12.452 0 00-4.75 2.98A12.418 12.418 0 000 25h1.953c0-5.816 4.731-10.547 10.547-10.547 5.816 0 10.547 4.731 10.547 10.547H25c0-3.339-1.3-6.478-3.661-8.839zM12.5 12.5a5.28 5.28 0 01-5.273-5.273A5.28 5.28 0 0112.5 1.953a5.28 5.28 0 015.273 5.274A5.28 5.28 0 0112.5 12.5z" fill="#00A4F4"/></svg><svg fill="none" viewBox="-1 -1 27 27" id="image-icon-user-hover" xmlns="http://www.w3.org/2000/svg"><path d="M21.339 16.161a12.452 12.452 0 00-4.75-2.98 7.224 7.224 0 003.138-5.954C19.727 3.242 16.485 0 12.5 0 8.515 0 5.273 3.242 5.273 7.227a7.224 7.224 0 003.138 5.955 12.452 12.452 0 00-4.75 2.98A12.418 12.418 0 000 25h1.953c0-5.816 4.731-10.547 10.547-10.547 5.816 0 10.547 4.731 10.547 10.547H25c0-3.339-1.3-6.478-3.661-8.839zM12.5 12.5a5.28 5.28 0 01-5.273-5.273A5.28 5.28 0 0112.5 1.953a5.28 5.28 0 015.273 5.274A5.28 5.28 0 0112.5 12.5z" fill="#fff"/></svg><svg fill="none" viewBox="-1 -1 26 26" id="image-icon-yt" xmlns="http://www.w3.org/2000/svg"><path d="M22.775 6.376a2.819 2.819 0 00-1.983-1.983c-1.761-.482-8.804-.482-8.804-.482s-7.043 0-8.803.464a2.876 2.876 0 00-1.983 2.001c-.464 1.76-.464 5.412-.464 5.412s0 3.67.464 5.412a2.82 2.82 0 001.983 1.983c1.779.482 8.803.482 8.803.482s7.043 0 8.804-.464a2.819 2.819 0 001.983-1.983c.463-1.76.463-5.412.463-5.412s.019-3.67-.463-5.43zm-13.03 8.785V8.415l5.857 3.373-5.856 3.373z" fill="#00A4F4"/></svg><svg fill="none" viewBox="-1 -1 167 142" id="image-on-demand-icon" xmlns="http://www.w3.org/2000/svg"><rect x=".5" y=".5" width="164" height="139" rx="2.5" stroke="#00A4F4"/><g clip-path="url(#boclip0_1444_2407)"><path d="M52.386 68.444c-6.27 0-11.37-5.054-11.37-11.264 0-6.21 5.1-11.264 11.37-11.264 6.268 0 11.367 5.053 11.367 11.264 0 6.211-5.099 11.264-11.367 11.264zm0-19.367c-4.527 0-8.209 3.636-8.209 8.103 0 4.468 3.682 8.103 8.209 8.103 4.525 0 8.206-3.635 8.206-8.103s-3.681-8.103-8.206-8.103zM56.959 99.63H37.131c-2.278 0-4.131-1.84-4.131-4.104v-5.17c0-10.585 8.696-19.197 19.385-19.197 4.204 0 8.206 1.312 11.57 3.794a1.581 1.581 0 01-1.877 2.544 16.21 16.21 0 00-9.693-3.177c-8.946 0-16.224 7.194-16.224 16.035v5.17c0 .52.436.945.97.945H56.96a1.581 1.581 0 01-.001 3.16zM126.869 98.434h-19.828a1.582 1.582 0 010-3.16h19.828c.535 0 .971-.424.971-.944v-5.17c0-8.843-7.279-16.035-16.224-16.035a16.372 16.372 0 00-10.272 3.624 1.58 1.58 0 11-1.988-2.458 19.544 19.544 0 0112.26-4.327c10.688 0 19.384 8.61 19.384 19.196v5.17c0 2.263-1.853 4.105-4.131 4.105zM111.615 67.663c-6.269 0-11.368-5.053-11.368-11.264 0-6.21 5.099-11.264 11.368-11.264s11.369 5.053 11.369 11.264c0 6.212-5.101 11.264-11.369 11.264zm0-19.367c-4.525 0-8.207 3.636-8.207 8.103 0 4.468 3.682 8.103 8.207 8.103 4.527 0 8.208-3.635 8.208-8.103s-3.682-8.103-8.208-8.103z" fill="#00A4F4"/><path d="M103.453 104.774H60.547c-2.85 0-5.169-2.301-5.169-5.13V92.37c0-14.533 11.942-26.356 26.622-26.356s26.622 11.823 26.622 26.356v7.272c0 2.83-2.319 5.131-5.169 5.131zM82 69.177c-12.936 0-23.46 10.406-23.46 23.195v7.272c0 1.086.9 1.97 2.007 1.97h42.905c1.107 0 2.008-.884 2.008-1.97v-7.272c0-12.79-10.524-23.195-23.46-23.195zM81.45 64.168c-8.054 0-14.608-6.491-14.608-14.472 0-7.98 6.553-14.47 14.608-14.47 8.056 0 14.61 6.491 14.61 14.471s-6.554 14.471-14.61 14.471zm0-25.78c-6.311 0-11.447 5.073-11.447 11.31 0 6.236 5.136 11.31 11.447 11.31 6.313 0 11.448-5.074 11.448-11.31 0-6.237-5.135-11.31-11.448-11.31z" fill="#55D102"/></g><defs><clipPath id="boclip0_1444_2407"><path fill="#fff" transform="translate(33 21)" d="M0 0h98v98H0z"/></clipPath></defs></svg><svg fill="none" viewBox="-1 -1 167 142" id="image-recruitment-process-icon" xmlns="http://www.w3.org/2000/svg"><rect x=".5" y=".5" width="164" height="139" rx="2.5" stroke="#00A4F4"/><path d="M121.767 62.416c-.17 0-.337-.032-.494-.095l-10.087-4.013a1.337 1.337 0 01-.063-2.46 4.268 4.268 0 002.176-2.29 4.25 4.25 0 00-2.385-5.517 4.254 4.254 0 00-5.523 2.374 4.114 4.114 0 00.011 3.142 1.34 1.34 0 01-.272 1.46 1.34 1.34 0 01-1.452.309L93.552 51.3a1.336 1.336 0 01-.75-1.739l3.12-7.846a6.955 6.955 0 01-2.542-.496 6.927 6.927 0 014.701-13.021 6.928 6.928 0 012.6 1.525l3.128-7.858a1.331 1.331 0 01.714-.734 1.338 1.338 0 011.025-.013l25.274 10.045a3.973 3.973 0 012.224 5.154l-10.034 25.246a1.34 1.34 0 01-1.245.852zm-7.359-5.702l6.608 2.625 9.54-24.003a1.31 1.31 0 00-.724-1.68l-24.03-9.557-3.516 8.863a1.337 1.337 0 01-2.464.055 4.25 4.25 0 10-2.265 5.702 1.338 1.338 0 011.753 1.731l-3.527 8.855 6.625 2.635a6.946 6.946 0 013.054-5.721 6.936 6.936 0 0110.655 4.235 6.939 6.939 0 01-1.707 6.256l-.002.004z" fill="#55D102"/><path d="M117.136 75.89a1.34 1.34 0 01-1.244-1.845 1.34 1.34 0 011.232-.831h.012a1.338 1.338 0 110 2.675zM103.262 75.89a1.337 1.337 0 11-.014-2.676h.014a1.34 1.34 0 01.946 2.284 1.34 1.34 0 01-.946.391z" fill="#000"/><path d="M103.249 75.896a1.34 1.34 0 110-2.678 1.34 1.34 0 010 2.678z" fill="#000"/><path d="M113.751 113.976H44.394a4.716 4.716 0 01-4.718-4.706V39.902a4.712 4.712 0 014.718-4.694H79.06a1.338 1.338 0 011.338 1.338v13.871a1.338 1.338 0 01-2.274.96 5.733 5.733 0 00-4.014-1.611 5.79 5.79 0 100 11.58 5.732 5.732 0 004.014-1.606 1.338 1.338 0 012.274.961v12.52h10.02a8.48 8.48 0 1115.356 0h11.333a1.338 1.338 0 011.338 1.337v34.712a4.706 4.706 0 01-4.693 4.706zM44.394 37.884a2.033 2.033 0 00-2.042 2.018v69.368a2.042 2.042 0 002.043 2.031h69.356a2.028 2.028 0 002.017-2.031V75.89h-12.506a1.341 1.341 0 01-1.229-.813 1.335 1.335 0 01.263-1.45 5.79 5.79 0 10-9.99-3.995 5.61 5.61 0 001.606 3.98 1.338 1.338 0 01-.952 2.273h-13.9a1.338 1.338 0 01-1.339-1.337v-11.33a8.466 8.466 0 110-15.336v-9.998H44.394z" fill="#00A4F4"/><path d="M79.072 89.782a1.338 1.338 0 01-1.338-1.338V74.566a1.338 1.338 0 112.676-.014v13.885a1.338 1.338 0 01-1.338 1.345zM79.082 113.923a1.338 1.338 0 01-1.338-1.338V98.693a1.338 1.338 0 112.675 0v13.892a1.338 1.338 0 01-1.337 1.338z" fill="#00A4F4"/><path d="M79.072 75.89H65.228a1.338 1.338 0 110-2.676h13.844a1.338 1.338 0 110 2.675zM54.947 75.898H41.05a1.338 1.338 0 110-2.676h13.896a1.338 1.338 0 010 2.676z" fill="#00A4F4"/><path d="M60.06 87.98a8.46 8.46 0 01-6.07-14.353 1.338 1.338 0 011.919 1.865 5.784 5.784 0 004.147 9.813 5.8 5.8 0 005.801-5.79 5.684 5.684 0 00-1.619-4.013 1.34 1.34 0 01.956-2.313 1.337 1.337 0 01.952.44 8.352 8.352 0 012.387 5.893 8.48 8.48 0 01-8.473 8.459zM84.038 102.056a8.437 8.437 0 01-5.886-2.389 1.339 1.339 0 111.857-1.925 5.785 5.785 0 10.048-8.379 1.338 1.338 0 01-2.314-.907v-.012a1.337 1.337 0 01.409-.962 8.472 8.472 0 115.886 14.574z" fill="#00A4F4"/></svg><svg fill="none" viewBox="-1 -1 107 73" id="image-values-icon-1" xmlns="http://www.w3.org/2000/svg"><g clip-path="url(#bqclip0_1258_8237)" stroke-width="2.5"><path d="M52.37 26.398l.006-.006.006-.006c.355-.354.657-.443.868-.443.21 0 .512.089.868.443l.062.062.07.052L88.07 51.866c.01.053.018.146.012.295-.015.38-.123.923-.346 1.619-.44 1.38-1.249 3.111-2.22 4.873a47.392 47.392 0 01-3.075 4.86c-.502.688-.969 1.273-1.373 1.72a7.168 7.168 0 01-.62.62l-56.633-.001c-.238-.182-.576-.607-.905-1.452-.38-.976-.646-2.256-.762-3.612-.116-1.351-.077-2.713.111-3.84.199-1.192.527-1.886.794-2.152l.185-.183 29.13-28.215zM53 70V26" stroke="#55D102"/><path d="M1.857 47.196h.003L53.103 64.4v5.351H20.046a.444.444 0 01-.341-.154l-.004-.004L1.364 47.896s0 0 0 0 0 0 0 0a.413.413 0 01-.114-.267.46.46 0 01.086-.264.473.473 0 01.22-.178.432.432 0 01.3.009zM102.514 47.44l.37-.125h.005l.196-.066c.492-.167.851.411.542.777 0 0 0 0 0 0L85.411 69.573l-.002.002a.493.493 0 01-.377.176H53.62v-5.69l1.322-.463c1.373-.477 3.335-1.152 5.693-1.958a7670.442 7670.442 0 0117.29-5.88 21553.854 21553.854 0 0122.991-7.78l1.597-.539z" fill="#fff" stroke="#00A4F4"/><path d="M54.172 2.462l1.102 3.078c.099.273.36.455.656.46l3.372.06c.675.014.953.838.414 1.233l-2.693 1.962a.675.675 0 00-.252.747l.984 3.112c.198.62-.53 1.133-1.083.76l-2.765-1.867a.731.731 0 00-.814 0l-2.765 1.867c-.553.373-1.281-.14-1.084-.76l.985-3.112a.675.675 0 00-.252-.747l-2.693-1.962c-.54-.39-.26-1.22.414-1.232L51.07 6a.706.706 0 00.656-.46l1.102-3.078c.22-.616 1.12-.616 1.34 0h.004z" stroke="#55D102"/></g><defs><clipPath id="bqclip0_1258_8237"><path fill="#fff" d="M0 0h105v71H0z"/></clipPath></defs></svg><svg fill="none" viewBox="-1 -1 107 98" id="image-values-icon-2" xmlns="http://www.w3.org/2000/svg"><g clip-path="url(#brclip0_1258_8293)"><path d="M54.045 1.875A1.816 1.816 0 0052.285 0a1.823 1.823 0 00-1.877 1.758c-.027 1.005 1.49 10.505 1.49 10.505s2.11-9.392 2.147-10.388zM28.513 7.895a1.817 1.817 0 00-3.206 1.713c.476.88 6.547 8.352 6.547 8.352s-2.874-9.186-3.34-10.074v.009zM9.42 25.854a1.817 1.817 0 10-1.922 3.086c.854.53 9.852 3.966 9.852 3.966s-7.085-6.522-7.938-7.052h.009zM1.877 50.947a1.816 1.816 0 10-.117 3.633c1.006.036 10.516-1.49 10.516-1.49s-9.402-2.108-10.4-2.144zM7.903 76.45a1.817 1.817 0 00-.746 2.459 1.821 1.821 0 002.461.744c.88-.475 8.36-6.54 8.36-6.54s-9.195 2.871-10.084 3.338h.009zM76.487 7.895a1.817 1.817 0 013.206 1.713c-.476.88-6.547 8.352-6.547 8.352s2.874-9.186 3.34-10.074v.009zM95.58 25.854a1.817 1.817 0 111.922 3.086c-.854.53-9.852 3.966-9.852 3.966s7.085-6.522 7.938-7.052h-.009zM103.123 50.947A1.823 1.823 0 01105 52.705a1.816 1.816 0 01-1.76 1.875c-1.006.036-10.516-1.49-10.516-1.49s9.402-2.108 10.399-2.144zM97.097 76.45c.88.476 1.222 1.57.746 2.459a1.821 1.821 0 01-2.461.744c-.88-.475-8.36-6.54-8.36-6.54s9.195 2.871 10.084 3.338h-.009z" fill="#55D102"/><path d="M76.546 38.948C74.53 33.122 69.816 22 52.1 22S27.9 32.74 26.235 38.948c-6.093 22.75 12.333 37.318 12.333 37.318l.098 9.574a2.95 2.95 0 002.953 2.95h19.543a2.95 2.95 0 002.953-2.95l.098-9.574s19.829-15.644 12.333-37.318z" stroke="#00A4F4" stroke-width="2.5"/><path d="M49.75 45c0 1.24 1.01 2.25 2.25 2.25s2.25-1.01 2.25-2.25-1.01-2.25-2.25-2.25-2.25 1.01-2.25 2.25zM40.75 48c0 1.24 1.01 2.25 2.25 2.25s2.25-1.01 2.25-2.25-1.01-2.25-2.25-2.25-2.25 1.01-2.25 2.25zM57.75 48c0 1.24 1.01 2.25 2.25 2.25s2.25-1.01 2.25-2.25-1.01-2.25-2.25-2.25-2.25 1.01-2.25 2.25zM52 48v31.5" stroke="#55D102" stroke-width="2.5"/><path d="M38.895 79.403v6.437a2.95 2.95 0 002.952 2.95h19.544c1.631 0 2.773-1.32 2.773-2.95v-6.437h-25.27z" stroke="#00A4F4" stroke-width="2.5"/><path d="M64 84H39v.497h25V84z" fill="#00A4F4" stroke="#00A4F4" stroke-width="2"/><path d="M44.5 50.5L52 57l6.5-6.5" stroke="#55D102" stroke-width="2.5"/></g><defs><clipPath id="brclip0_1258_8293"><path fill="#fff" d="M0 0h105v95.913H0z"/></clipPath></defs></svg><svg fill="none" viewBox="-1 -1 107 69" id="image-values-icon-3" xmlns="http://www.w3.org/2000/svg"><g clip-path="url(#bsclip0_1258_8163)"><path d="M66.938 1.297l36.733 6.967-18.578 32.547-2.088-4.548v-.001a2.361 2.361 0 00-3.136-1.162h-.001L13.283 65.913 1.293 39.8 67.871 8.992h0a2.369 2.369 0 001.158-3.138l-2.091-4.557z" stroke="#00A4F4" stroke-width="2.5"/></g><defs><clipPath id="bsclip0_1258_8163"><path fill="#fff" d="M0 0h105v67H0z"/></clipPath></defs></svg><svg fill="none" viewBox="-1 -1 107 94" id="image-values-icon-4" xmlns="http://www.w3.org/2000/svg"><g clip-path="url(#btclip0_1258_8104)"><path d="M55.016 66.516c6.43 2.654 9.478 9.996 6.818 16.396s-10.026 9.443-16.456 6.79c-6.43-2.654-9.478-9.996-6.818-16.396s10.026-9.443 16.456-6.79z" stroke="#00A4F4" stroke-width="2.5"/><path d="M50.657 22L30 42.584l20.657 20.584 20.658-20.584L50.657 22z" stroke="#55D102" stroke-width="2.5"/><path d="M74.865 8.877H25.53v10.042h49.335V8.877z" stroke="#00A4F4" stroke-width="2.5"/><path d="M79.89 3.304a1.046 1.046 0 011.467.13c.369.44.306 1.093-.13 1.46-.442.368-5.266 3.03-5.266 3.03s3.488-4.252 3.93-4.62z" fill="#55D102"/><path d="M51.27 4.294l-.018-.152a134.83 134.83 0 01-.222-2.036c-.03-.294-.053-.55-.067-.747a7.792 7.792 0 01-.017-.345v-.008h0l.001-.016V.987a.536.536 0 01.57-.483h.005c.297.019.521.278.5.568v.004h0a.233.233 0 01-.004.03c-.002.02-.007.045-.012.077a7.65 7.65 0 01-.047.24c-.04.194-.096.444-.164.732-.135.574-.311 1.29-.487 1.99l-.038.149zM78.152 21.884l.129.071c.632.35 1.277.71 1.79 1.005.258.147.48.277.65.38a8.006 8.006 0 01.293.188l.005.004a.14.14 0 01.002.001l.044.036c.187.194.204.5.03.714a.547.547 0 01-.763.075s0 0 0 0l-.006-.005a137.382 137.382 0 01-2.175-2.47zM21.835 6.186l.096.115-.134-.076c-.63-.355-1.272-.72-1.783-1.02-.255-.15-.476-.281-.645-.386a7.897 7.897 0 01-.29-.19l-.006-.005a.538.538 0 01-.068-.754.546.546 0 01.764-.068l.006.006a.962.962 0 01.071.07l.168.18c.134.147.303.34.496.564.387.447.862 1.01 1.325 1.564zM21.402 21.432l.13-.071-.094.11c-.468.549-.949 1.108-1.34 1.552-.195.222-.366.413-.5.559a8.323 8.323 0 01-.241.248l-.006.005a.538.538 0 01-.733-.789l.044-.036.002-.001.005-.004a138.63 138.63 0 012.733-1.573z" stroke="#55D102"/></g><defs><clipPath id="btclip0_1258_8104"><path fill="#fff" d="M0 0h105v92H0z"/></clipPath></defs></svg></svg>