<svg width="490" height="143" viewBox="0 0 490 143" fill="none" xmlns="http://www.w3.org/2000/svg"><circle cx="338.5" cy="58.5" r="24.5" fill="#fff"/><circle cx="422" cy="99" r="13" fill="#fff"/><path stroke="#fff" stroke-width="4" d="M51 13h47v47H51z"/><path d="M13.53 142.252H7.949V128.64H0V124h21.506v4.64h-7.975v13.612Z" fill="#55D102"/><path d="M435 22.675v4.673h-11.186V34H420V16h3.814v6.675H435Z" fill="#00A4F4"/><path stroke="#00A4F4" stroke-width="4" d="M83 29h24v24H83z"/><path stroke="#fff" stroke-width="4" d="M165 123h16v16h-16z"/><path d="M194.728 8.423a8 8 0 0 0-10.847 11.763M110.976 93a8 8 0 0 0 15.504 3.953" stroke="#55D102" stroke-width="3"/><path d="M472.464 115H468v13.715c0 2.164 1.718 3.918 3.837 3.918h13.049c2.552 0 4.62-2.112 4.62-4.718v-6.844h-4.463v4.794c0 1.657-1.315 3-2.938 3h-6.704c-1.622 0-2.937-1.343-2.937-3V115Z" fill="#00A4F4"/><path d="M382 41.49V39h7.778c1.227 0 2.222.959 2.222 2.14v7.282c0 1.424-1.198 2.578-2.676 2.578h-3.881v-2.49h2.719c.939 0 1.701-.734 1.701-1.64v-3.74c0-.906-.762-1.64-1.701-1.64H382Z" fill="#55D102"/><circle cx="42.5" cy="92.5" r="4.5" fill="#00A4F4"/><circle cx="412" cy="93" r="8" fill="#00A4F4"/><circle cx="474.5" cy="50.5" r="4.5" fill="#55D102"/></svg>