<svg width="219" height="43" viewBox="0 0 219 43" fill="none" xmlns="http://www.w3.org/2000/svg"><path d="M49.666 8.968v4.61h-6.905v20.45H37.07v-20.45h-6.905v-4.61h19.502Zm11.2 25.06c-.493 0-.87-.068-1.128-.206-.247-.137-.455-.424-.623-.86l-.37-.98c-.439.379-.86.711-1.264.998a8.266 8.266 0 0 1-1.263.74 5.894 5.894 0 0 1-1.38.43 7.743 7.743 0 0 1-1.618.154c-.797 0-1.52-.103-2.172-.31a4.695 4.695 0 0 1-1.668-.946 4.191 4.191 0 0 1-1.044-1.53c-.246-.62-.37-1.33-.37-2.133 0-.63.157-1.279.471-1.944.315-.665.86-1.267 1.634-1.806.775-.55 1.819-1.009 3.133-1.376 1.313-.367 2.97-.573 4.968-.619v-.757c0-1.043-.214-1.794-.64-2.253-.416-.47-1.01-.705-1.785-.705-.618 0-1.123.069-1.516.206a7.102 7.102 0 0 0-1.061.465c-.303.172-.6.326-.893.464-.292.138-.64.206-1.044.206a1.63 1.63 0 0 1-.926-.258 2.09 2.09 0 0 1-.59-.67l-.943-1.669a10.474 10.474 0 0 1 3.503-2.115c1.291-.47 2.672-.706 4.143-.706 1.056 0 2.005.178 2.847.534a5.89 5.89 0 0 1 2.155 1.462 6.257 6.257 0 0 1 1.364 2.218c.315.86.472 1.8.472 2.821V34.03h-2.391Zm-5.995-3.25c.674 0 1.263-.12 1.768-.361.505-.241 1.016-.63 1.533-1.17V26.77c-1.044.046-1.903.138-2.577.276-.673.137-1.207.31-1.6.516-.393.206-.668.441-.825.705-.146.264-.219.55-.219.86 0 .608.163 1.038.488 1.29.326.24.803.361 1.432.361ZM73.197 8.28v25.75h-5.221V8.28h5.22Zm12.535 7.637c1.156 0 2.212.184 3.166.55.966.367 1.79.9 2.476 1.6.696.7 1.235 1.56 1.617 2.58.392 1.01.589 2.156.589 3.44a7.7 7.7 0 0 1-.05.98 1.576 1.576 0 0 1-.186.603.706.706 0 0 1-.37.31 1.592 1.592 0 0 1-.573.085H82.33c.168 1.49.612 2.575 1.33 3.251.719.665 1.645.998 2.78.998.605 0 1.128-.075 1.565-.224.438-.15.826-.315 1.163-.499.348-.183.662-.35.942-.499.293-.149.596-.223.91-.223.415 0 .73.155.943.464l1.516 1.91a7.923 7.923 0 0 1-1.752 1.548 9.218 9.218 0 0 1-1.92.928 9.937 9.937 0 0 1-1.97.447c-.651.092-1.274.138-1.87.138a9.8 9.8 0 0 1-3.452-.602 8.096 8.096 0 0 1-2.812-1.823c-.797-.803-1.432-1.8-1.903-2.993-.46-1.192-.691-2.58-.691-4.162 0-1.193.197-2.322.59-3.389.404-1.066.976-2 1.717-2.803a8.295 8.295 0 0 1 2.712-1.91c1.066-.47 2.268-.705 3.604-.705Zm.1 3.681c-.998 0-1.779.292-2.34.877-.562.573-.932 1.405-1.112 2.494h6.518c0-.424-.056-.837-.168-1.238a2.774 2.774 0 0 0-.522-1.067 2.554 2.554 0 0 0-.944-.774c-.392-.195-.87-.292-1.431-.292Zm11.586 14.43V16.193h3.234c.325 0 .595.075.808.224.224.15.382.373.472.67l.303 1.033c.336-.321.684-.62 1.044-.895a5.863 5.863 0 0 1 1.145-.688 6.292 6.292 0 0 1 1.331-.447 6.756 6.756 0 0 1 1.566-.172c.954 0 1.796.172 2.526.516a5.118 5.118 0 0 1 1.869 1.41c.506.597.887 1.314 1.146 2.15.258.826.387 1.726.387 2.701V34.03h-5.221V22.694c0-.871-.196-1.548-.589-2.03-.393-.493-.971-.74-1.735-.74-.572 0-1.112.127-1.617.38a6.28 6.28 0 0 0-1.448 1.014v12.71h-5.22Zm26.511.276c-.831 0-1.566-.12-2.206-.361a4.602 4.602 0 0 1-1.6-1.05 4.636 4.636 0 0 1-.977-1.65c-.224-.643-.337-1.36-.337-2.15v-9.22h-1.482a.995.995 0 0 1-.69-.258c-.191-.183-.286-.447-.286-.791v-2.081l2.778-.55 1.028-4.352c.134-.55.516-.826 1.145-.826h2.728v5.212h4.244v3.646h-4.244v8.858c0 .413.096.757.287 1.032.202.264.488.396.858.396.191 0 .348-.017.472-.052a2.58 2.58 0 0 0 .337-.137c.101-.058.191-.104.269-.138a.657.657 0 0 1 .303-.069.54.54 0 0 1 .371.12c.101.07.202.184.303.345l1.583 2.528a7.274 7.274 0 0 1-2.273 1.17 9.047 9.047 0 0 1-2.611.378Z" fill="#55D102"/><path d="M143.103 29.436c.763 0 1.443-.126 2.038-.378a4.208 4.208 0 0 0 1.532-1.118c.416-.482.73-1.066.943-1.754.225-.7.337-1.491.337-2.374V8.968h5.693v14.844c0 1.537-.247 2.947-.741 4.231-.483 1.285-1.179 2.391-2.089 3.32-.909.928-2.015 1.651-3.318 2.167-1.302.516-2.767.774-4.395.774-1.639 0-3.11-.258-4.413-.774-1.302-.516-2.408-1.239-3.317-2.167-.91-.929-1.606-2.035-2.089-3.32-.482-1.284-.724-2.694-.724-4.231V8.968h5.693v14.827c0 .883.106 1.674.319 2.373.225.688.545 1.279.96 1.772.416.482.921.854 1.516 1.118.607.252 1.291.378 2.055.378Zm15.076 4.593V16.192h3.233c.326 0 .596.075.809.224.224.15.381.373.471.67l.304 1.033c.337-.321.685-.62 1.044-.895a5.863 5.863 0 0 1 1.145-.688 6.283 6.283 0 0 1 1.33-.447 6.771 6.771 0 0 1 1.567-.172c.954 0 1.796.172 2.526.516a5.118 5.118 0 0 1 1.869 1.41c.506.597.887 1.314 1.145 2.15.259.826.388 1.726.388 2.701v11.335h-5.221V22.694c0-.871-.196-1.548-.589-2.03-.393-.493-.972-.74-1.735-.74-.573 0-1.112.127-1.617.38a6.28 6.28 0 0 0-1.448 1.014v12.71h-5.221Zm25.77-17.837V34.03h-5.221V16.192h5.221Zm.606-4.884c0 .424-.084.825-.252 1.204a3.296 3.296 0 0 1-.691.98 3.567 3.567 0 0 1-1.027.67 3.135 3.135 0 0 1-1.23.242c-.426 0-.825-.08-1.195-.241a3.719 3.719 0 0 1-.994-.671 3.452 3.452 0 0 1-.674-.98 3.11 3.11 0 0 1-.235-1.204c0-.436.078-.843.235-1.222.169-.378.393-.71.674-.997a3.25 3.25 0 0 1 .994-.671c.37-.16.769-.24 1.195-.24.438 0 .848.08 1.23.24.393.16.735.384 1.027.67.292.287.522.62.691.998.168.379.252.786.252 1.222Zm5.227 22.72V19.857l-1.146-.24c-.393-.093-.713-.236-.96-.43-.236-.196-.353-.482-.353-.86v-2.1h2.459v-1.014c0-1.02.157-1.944.471-2.77a6.027 6.027 0 0 1 1.381-2.115c.606-.585 1.342-1.038 2.206-1.359.865-.32 1.847-.481 2.947-.481.427 0 .82.028 1.179.086.371.046.753.126 1.146.24l-.101 2.598a.872.872 0 0 1-.152.464c-.078.115-.18.212-.303.293-.124.068-.264.12-.421.154a1.904 1.904 0 0 1-.438.052c-.46 0-.87.046-1.229.138-.36.091-.663.258-.91.498-.236.23-.415.54-.539.93-.123.378-.185.86-.185 1.444v.843h4.109v3.646h-3.941V34.03h-5.22Zm19.411 4.628c-.157.355-.348.613-.572.773-.225.172-.584.258-1.078.258h-3.908l3.369-7.223-6.972-16.272h4.614c.404 0 .718.092.943.276.225.183.382.4.472.653l2.863 7.689c.269.71.488 1.422.657 2.132.112-.366.235-.728.37-1.083.135-.356.264-.717.387-1.084l2.594-7.654c.09-.263.264-.481.522-.653a1.5 1.5 0 0 1 .859-.276h4.21l-9.33 22.464ZM4.464 16.396H0V30.11c0 2.164 1.718 3.919 3.837 3.919h13.05c2.55 0 4.62-2.113 4.62-4.719v-6.843h-4.464v4.794c0 1.657-1.316 3-2.938 3H7.401c-1.622 0-2.937-1.343-2.937-3V16.396Z" fill="#00A4F4"/><path d="M13.53 27.223H7.949V13.612H0v-4.64h21.506v4.64h-7.975v13.611ZM184.769 11.18c0-1.9-1.508-3.44-3.369-3.44-1.86 0-3.368 1.54-3.368 3.44s1.508 3.44 3.368 3.44c1.861 0 3.369-1.54 3.369-3.44Z" fill="#55D102"/></svg>