<svg width="1278" height="468" viewBox="0 0 1278 468" fill="none" xmlns="http://www.w3.org/2000/svg"><mask id="a" mask-type="alpha" maskUnits="userSpaceOnUse" x="0" y="-1" width="1278" height="469"><rect y="-1" width="1278" height="469" rx="3" fill="#fff"/></mask><g mask="url(#a)"><path d="M1333 109.5C1333-5.1 1240.1-98 1125.5-98S918-5.1 918 109.5c0 114.599 92.9 207.5 207.5 207.5S1333 224.099 1333 109.5Z" fill="#DDF6CC"/><path d="M292 123.5C292 66.338 245.661 20 188.5 20S85 66.338 85 123.5C85 180.661 131.339 227 188.5 227S292 180.661 292 123.5Z" fill="#9CDBFB" fill-opacity=".12"/><path d="M113 272.5c0-22.92-18.58-41.5-41.5-41.5S30 249.58 30 272.5 48.58 314 71.5 314s41.5-18.58 41.5-41.5Z" fill="#55D102" fill-opacity=".2"/></g></svg>